Coordinates
version=1
nRows=15
nColumns=42
inDegrees=yes

Units are S.I. units (second, meters, Newtons, ...)
If the header above contains a line with 'inDegrees', this indicates whether rotational values are in degrees (yes) or radians (no).

endheader
time	pelvis_tilt	pelvis_list	pelvis_rotation	pelvis_tx	pelvis_ty	pelvis_tz	hip_flexion_r	hip_adduction_r	hip_rotation_r	knee_angle_r	knee_adduction_r	knee_angle_r_beta	ankle_angle_r	subtalar_angle_r	mtp_angle_r	hip_flexion_l	hip_adduction_l	hip_rotation_l	knee_angle_l	knee_adduction_l	knee_angle_l_beta	ankle_angle_l	subtalar_angle_l	mtp_angle_l	lumbar_extension	lumbar_bending	lumbar_rotation	arm_flex_r	arm_add_r	arm_rot_r	elbow_flex_r	pro_sup_r	wrist_flex_r	wrist_dev_r	arm_flex_l	arm_add_l	arm_rot_l	elbow_flex_l	pro_sup_l	wrist_flex_l	wrist_dev_l
      0.30000000	     15.66112190	      1.12911168	     -0.37413007	     -0.90737197	      0.99311393	     -0.14936449	      5.54344360	     -2.38472936	     -2.83944483	     40.07219324	      3.83350575	      0.69939171	      4.55490244	     -9.13942485	     -9.63652315	    -20.87871322	      3.78947012	     -5.67827281	      3.59241550	      1.62101396	      0.06269948	      8.24642031	     15.85781407	     -9.63652315	    -33.18484517	     -0.20170498	      3.71589182	     -6.67852389	    -22.61747563	     -6.42929167	     71.40881433	     90.00000001	      0.00000000	      0.00000000	      2.81321064	    -21.18934622	      5.64864698	     67.25610170	     90.00000001	      0.00000000	      0.00000000
      0.31000000	     15.69974008	      1.31906560	     -0.11899094	     -0.89468024	      0.99135224	     -0.14971454	      6.22441931	     -2.48805492	     -3.40956952	     36.96520527	      3.54640113	      0.64516454	      4.31885298	     -8.80772517	     -9.54836129	    -21.94014233	      3.88192907	     -5.66336365	      3.24305156	      1.71821999	      0.05660193	      8.88479977	     16.36664769	     -9.54836129	    -33.23371695	     -0.22210446	      3.58297614	     -7.10558349	    -22.55686759	     -7.01934908	     71.44581531	     90.00000001	      0.00000000	      0.00000000	      3.64699213	    -21.60819270	      6.14034047	     67.85839949	     90.00000001	      0.00000000	      0.00000000
      0.32000000	     15.70329535	      1.57103267	      0.13111374	     -0.88203211	      0.98929683	     -0.15000923	      6.88623302	     -2.64171536	     -4.32341284	     33.78788849	      3.02926003	      0.58970990	      4.10584420	     -8.06815361	     -9.47468547	    -22.88768570	      4.03208802	     -5.54487827	      3.04816054	      1.79949385	      0.05320044	      9.58125824	     16.76779700	     -9.47468547	    -33.25777417	     -0.31115317	      3.42646868	     -7.48195465	    -22.45971759	     -7.59936549	     71.42023234	     90.00000001	      0.00000000	      0.00000000	      4.51939357	    -22.01408851	      6.64763010	     68.40544874	     90.00000001	      0.00000000	      0.00000000
      0.33000000	     15.71061057	      1.83729809	      0.35038755	     -0.86931251	      0.98701867	     -0.15010959	      7.48561150	     -2.77296171	     -5.62761629	     30.55863364	      2.27293615	      0.53334877	      3.88142390	     -6.67157017	     -9.38297089	    -23.79503198	      4.18720638	     -5.40322706	      2.95760974	      1.88250841	      0.05162003	     10.25969082	     17.03517241	     -9.38297089	    -33.28414566	     -0.44277029	      3.28943113	     -7.87831604	    -22.32782653	     -8.14282152	     71.43403631	     90.00000001	      0.00000000	      0.00000000	      5.42166563	    -22.45320604	      7.20601881	     68.87990757	     90.00000001	      0.00000000	      0.00000000
      0.34000000	     15.66025027	      2.19438214	      0.58715582	     -0.85666295	      0.98449025	     -0.15037102	      8.10393419	     -3.02353007	     -7.22484686	     27.34413328	      1.46839662	      0.47724516	      3.68603491	     -4.88024310	     -9.30413224	    -24.56711995	      4.43906345	     -5.04665941	      3.00741704	      1.93474041	      0.05248933	     11.02864856	     17.18942575	     -9.30413224	    -33.27209043	     -0.63457898	      3.12257019	     -8.19264012	    -22.20948031	     -8.70411288	     71.33803781	     90.00000001	      0.00000000	      0.00000000	      6.36090653	    -22.82961969	      7.85790656	     69.31365377	     90.00000001	      0.00000000	      0.00000000
      0.35000000	     15.60839556	      2.56775647	      0.81698019	     -0.84390179	      0.98179624	     -0.15051076	      8.68651771	     -3.26626249	     -9.18477383	     24.19406627	      0.55130900	      0.42226612	      3.51824988	     -2.38431451	     -9.21723413	    -25.30091103	      4.71540890	     -4.58315108	      3.16088927	      1.92770915	      0.05516793	     11.74830724	     17.18084308	     -9.21723413	    -33.24837672	     -0.86008308	      2.97155031	     -8.53172131	    -22.08382538	     -9.24390137	     71.28118600	     90.00000001	      0.00000000	      0.00000000	      7.32268739	    -23.20711638	      8.55338504	     69.71430198	     90.00000001	      0.00000000	      0.00000000
      0.36000000	     15.47462172	      3.01958189	      1.08478568	     -0.83107878	      0.97890041	     -0.15064576	      9.32880784	     -3.63893557	    -11.19308277	     21.21320131	     -0.12612190	      0.37024021	      3.24611275	      0.07372065	     -9.14323574	    -25.90654644	      5.02430223	     -4.11280468	      3.40400259	      1.99066772	      0.05941105	     12.52146986	     17.06699662	     -9.14323574	    -33.14223929	     -1.13869219	      2.72738338	     -8.82335397	    -21.87932895	     -9.71112116	     71.11958612	     90.00000001	      0.00000000	      0.00000000	      8.26430027	    -23.59867833	      9.23766356	     70.00871466	     90.00000001	      0.00000000	      0.00000000
      0.37000000	     15.33508906	      3.44399427	      1.36553561	     -0.81814759	      0.97595924	     -0.15073973	      9.90697642	     -4.00710423	    -13.13979559	     18.35873522	     -0.61292558	      0.32042038	      2.81556844	      2.52901462	     -9.08285497	    -26.46596658	      5.29759325	     -3.57049648	      3.74683081	      2.00283490	      0.06539453	     13.26042367	     16.93715627	     -9.08285497	    -33.02937063	     -1.38607490	      2.46046170	     -9.07279803	    -21.68854335	    -10.16520272	     70.94841086	     90.00000001	      0.00000000	      0.00000000	      9.17887573	    -23.97523873	      9.93979442	     70.26137380	     90.00000001	      0.00000000	      0.00000000
      0.38000000	     15.16127655	      3.95831541	      1.67027892	     -0.80495472	      0.97286305	     -0.15094359	     10.63282980	     -4.54578459	    -15.70462376	     16.08846095	     -1.14782125	      0.28079662	      2.92285729	      6.42157060	     -8.94476747	    -27.01988600	      5.67316458	     -2.91774326	      4.08270335	      1.95868997	      0.07125662	     13.88253914	     16.69115615	     -8.94476747	    -32.85868136	     -1.70136981	      2.16230869	     -9.37922948	    -21.51092279	    -10.54999621	     70.80180982	     90.00000001	      0.00000000	      0.00000000	     10.02525839	    -24.29114495	     10.56874915	     70.55067900	     90.00000001	      0.00000000	      0.00000000
      0.39000000	     15.01661594	      4.30834122	      2.02270023	     -0.79167041	      0.96993936	     -0.15098845	     11.10014603	     -4.86448084	    -17.44426490	     13.76626502	     -1.27379906	      0.24026665	      2.42517848	      8.46814639	     -8.81130264	    -27.52775465	      5.80992886	     -2.54087352	      4.59382161	      1.95895214	      0.08017731	     14.60998655	     16.75826833	     -8.81130264	    -32.72356509	     -1.84040300	      1.91240280	     -9.62887305	    -21.31358503	    -10.93944579	     70.59510611	     90.00000001	      0.00000000	      0.00000000	     10.85623155	    -24.58319870	     11.23337614	     70.76250782	     90.00000001	      0.00000000	      0.00000000
      0.40000000	     14.75232285	      4.69714043	      2.37377403	     -0.77833410	      0.96693720	     -0.15106160	     11.58159454	     -5.24356728	    -18.36492847	     11.68554787	     -1.09328274	      0.20395129	      1.77404197	      9.31349428	     -8.78446653	    -27.88710881	      5.99617491	     -2.17668750	      5.16391027	      1.93059194	      0.09012724	     15.28147867	     16.83007388	     -8.78446653	    -32.46523004	     -2.01409604	      1.60600267	     -9.80177536	    -21.12852758	    -11.22389099	     70.30177285	     90.00000001	      0.00000000	      0.00000000	     11.57454718	    -24.82050152	     11.75101187	     70.95512642	     90.00000001	      0.00000000	      0.00000000
      0.41000000	     14.56188211	      4.94651069	      2.83006206	     -0.76468071	      0.96415434	     -0.15112481	     11.88961266	     -5.46250894	    -19.27779119	      9.92747583	     -0.93414697	      0.17326714	      1.27982123	     10.11411097	     -8.76273909	    -28.32982993	      5.94579328	     -1.88677845	      5.75948557	      1.94983563	      0.10052199	     15.85046813	     16.95715886	     -8.76273909	    -32.26357213	     -1.99143765	      1.31843422	    -10.01449551	    -20.92540770	    -11.54363144	     70.03249827	     90.00000001	      0.00000000	      0.00000000	     12.23351303	    -25.03440739	     12.29206090	     71.13220763	     90.00000001	      0.00000000	      0.00000000
      0.42000000	     14.35906813	      5.12501576	      3.30428218	     -0.75077606	      0.96145586	     -0.15110439	     12.21772774	     -5.60974858	    -20.04428524	      8.71332037	     -0.81328387	      0.15207613	      0.96247963	     10.71684438	     -8.74013910	    -28.71963552	      5.77826533	     -1.83755326	      6.47890118	      1.99465267	      0.11307816	     16.45800079	     17.26881383	     -8.74013910	    -32.02555757	     -1.90231184	      1.06059627	    -10.20550505	    -20.70059840	    -11.87814448	     69.72251485	     90.00000001	      0.00000000	      0.00000000	     12.79567284	    -25.20013331	     12.79514727	     71.27437522	     90.00000001	      0.00000000	      0.00000000
      0.43000000	     14.18642177	      5.13359025	      3.74788760	     -0.73642049	      0.95880613	     -0.15095710	     12.54562074	     -5.54871448	    -20.78361682	      8.09496799	     -0.83655335	      0.14128384	      0.97676001	     11.49361308	     -8.64642012	    -28.94597300	      5.41430912	     -3.03075615	      7.64341039	      1.89815448	      0.13340268	     17.38288863	     19.44652692	     -8.64642012	    -31.75327684	     -1.64297278	      0.95510792	    -10.51046198	    -20.52106317	    -12.22778130	     69.49514946	     90.00000001	      0.00000000	      0.00000000	     13.23821516	    -25.28733110	     13.23387643	     71.42299626	     90.00000001	      0.00000000	      0.00000000
      0.44000000	     13.77587041	      5.28529415	      4.08078622	     -0.72201038	      0.95606658	     -0.15083642	     13.17845257	     -5.65631180	    -20.68170219	      8.07028906	     -0.84012857	      0.14085312	      0.99100283	     11.44508973	     -8.64068715	    -29.19821741	      5.29481737	     -2.98382300	      8.20602120	      1.89340885	      0.14322209	     17.40225197	     19.45926927	     -8.64068715	    -31.24560018	     -1.56928356	      0.80227175	    -10.77730745	    -20.44362829	    -12.25631097	     69.25744261	     90.00000001	      0.00000000	      0.00000000	     13.41566760	    -25.24329388	     13.24331120	     71.58316477	     90.00000001	      0.00000000	      0.00000000
